<?xml version="1.0" encoding="UTF-8"?>
<svg id="Layer_1" data-name="Layer 1" xmlns="http://www.w3.org/2000/svg" viewBox="0 0 195 173.16">
  <defs>
    <style>
      .cls-1 {
        fill: #3c3c97;
      }

      .cls-2 {
        fill: #010101;
      }

      .cls-3 {
        fill: #fff;
      }

      .cls-4 {
        fill: #e42f27;
      }
    </style>
  </defs>
  <path class="cls-1" d="M49,124.16c2.53-5.14,24.59-26.62,23.86-30.36L0,.17c18.21.6,36.74-1.4,54.76,1.24l45.26,59.74,2.06-.63,10.42-12.36h44.5l-20.5,25h-24.5l39,51H49ZM51,13.17l-8.38,1.76-6.61-6.77-.11,9.9-7.91,2.6,7.53,3.48.49,9.02,5.69-7.05,9.29,2.04-4.67-7.5,4.67-7.48h0ZM72.99,37.16l-9.29,2.87-6.69-6.87-.11,9.9-8.89,2.11,8.83,4.15.18,9.83,6.61-7.82,9.38,2.81-5.92-7.64,5.91-9.35h0ZM80.99,58.16c-3.2-3.14-1.49,9.21-2.08,9.9l-9.9,2.11,8.98,5.05-1.98,10.94,7.69-6.85,10.29,3.85-4.83-10.36,6.84-7.63-10.86,1.9-4.16-8.91h0Z"/>
  <path class="cls-4" d="M192,173.16h-48.5l-26.5-33h46.5c10.82,9.45,19.11,22.04,28.5,33Z"/>
  <path class="cls-2" d="M9,173.16l25.24-31.75c15.96-1.59,32.85,1.46,48.75-1.25l-26.49,33H9Z"/>
  <path class="cls-4" d="M195,.16l-23,28.49c-.83.29-1.29-.49-1.5-.49h-41c-.4,0-1.76,2.57-1.49-.48L150.5.16h44.5Z"/>
  <path class="cls-3" d="M80.99,58.16l4.16,8.91,10.86-1.9-6.84,7.63,4.83,10.36-10.29-3.85-7.69,6.85,1.98-10.94-8.98-5.05,9.9-2.11c.59-.69-1.12-13.04,2.08-9.9h0Z"/>
  <polygon class="cls-3" points="72.99 37.16 67.08 46.51 73 54.15 63.62 51.34 57.01 59.15 56.83 49.32 48.01 45.17 56.9 43.06 57.01 33.16 63.71 40.03 72.99 37.16"/>
  <polygon class="cls-3" points="51 13.17 46.33 20.65 51 28.15 41.7 26.11 36.01 33.16 35.52 24.14 27.99 20.66 35.9 18.06 36.01 8.16 42.62 14.93 51 13.17"/>
</svg>