<?xml version="1.0" encoding="UTF-8"?>
<svg id="Layer_1" data-name="Layer 1" xmlns="http://www.w3.org/2000/svg" viewBox="0 0 857.53 174.05">
  <defs>
    <style>
      .cls-1 {
        fill: #e62c25;
      }

      .cls-2 {
        fill: #2800b4;
      }

      .cls-3 {
        fill: #fff;
      }
    </style>
  </defs>
  <path d="M853.21.63v35h-88.5c-4.41,0-10.7,5.86-11.43,10.56-5.16,32.81,41.72,21.94,61.47,23.4,33.41,2.46,44.96,28.99,42.45,59.52-1.95,23.69-20.82,44.52-45.48,44.52h-87.5v-34h86.5c1.28,0,7.1-2.44,8.54-3.46,10.24-7.26,9.99-30.82-4.52-32.56-23.97-2.88-49.58,5.74-72.22-7.78-32.48-19.41-29.68-77.64,6.71-91.68,2.65-1.02,10.11-3.52,12.48-3.52h91.5Z"/>
  <rect x="171.17" y=".63" width="117.04" height="35"/>
  <rect x="203.21" y="70.63" width="81" height="33"/>
  <rect x="172.21" y="140.63" width="116" height="33"/>
  <path d="M571.21.63v109.5c0,2.12,4.67,12.64,6.16,14.84,13.96,20.52,54.44,20.27,68.03-.64,1.76-2.71,5.8-12.34,5.8-15.2V.63h31v109.5c0,2.54-1.75,10.55-2.49,13.51-17.84,71.58-132.47,65.64-139.38-9.64-3.11-33.88,1-73.21-.08-107.92-.06-1.92-.78-3.6-1.05-5.45h32Z"/>
  <path d="M144.21,160.13c-2.26,13.69-22.23,17.97-31.9,8.9L3.18,33.16C-6.12,19.65,6.28-7.09,23.58,1.76c2.67,1.36,13.66,15.85,16.6,19.4,23.97,28.97,46.26,59.7,70.73,88.2.62.72-.05,1.87,2.29,1.27V.63h31v159.5Z"/>
  <path class="cls-2" d="M365.21,124.63c2.53-5.14,24.59-26.62,23.86-30.36L316.21.64c18.21.6,36.74-1.4,54.76,1.24l45.26,59.74,2.06-.63,10.42-12.36h44.5l-20.5,25h-24.5l39,51h-102ZM367.21,13.64l-8.38,1.76-6.61-6.77-.11,9.9-7.91,2.6,7.53,3.48.49,9.02,5.69-7.05,9.29,2.04-4.67-7.5,4.67-7.48ZM389.2,37.63l-9.29,2.87-6.69-6.87-.11,9.9-8.89,2.11,8.83,4.15.18,9.83,6.61-7.82,9.38,2.81-5.92-7.64,5.91-9.35ZM397.2,58.63c-3.2-3.14-1.49,9.21-2.08,9.9l-9.9,2.11,8.98,5.05-1.98,10.94,7.69-6.85,10.29,3.85-4.83-10.36,6.84-7.63-10.86,1.9-4.16-8.91Z"/>
  <path d="M32.21,173.63H.21V43.63c11.61,11.84,21.25,25.78,32,38.5v91.5Z"/>
  <path class="cls-1" d="M508.21,173.63h-48.5l-26.5-33h46.5c10.82,9.45,19.11,22.04,28.5,33Z"/>
  <path d="M325.21,173.63l25.24-31.75c15.96-1.59,32.85,1.46,48.75-1.25l-26.49,33h-47.5Z"/>
  <path class="cls-1" d="M511.21.63l-23,28.49c-.83.29-1.29-.49-1.5-.49h-41c-.4,0-1.76,2.57-1.49-.48L466.71.63h44.5Z"/>
  <path class="cls-3" d="M397.2,58.63l4.16,8.91,10.86-1.9-6.84,7.63,4.83,10.36-10.29-3.85-7.69,6.85,1.98-10.94-8.98-5.05,9.9-2.11c.59-.69-1.12-13.04,2.08-9.9Z"/>
  <polygon class="cls-3" points="389.2 37.63 383.29 46.98 389.21 54.62 379.83 51.81 373.22 59.62 373.04 49.79 364.22 45.64 373.11 43.53 373.22 33.63 379.92 40.5 389.2 37.63"/>
  <polygon class="cls-3" points="367.21 13.64 362.54 21.12 367.21 28.62 357.91 26.58 352.22 33.63 351.73 24.61 344.2 21.13 352.11 18.53 352.22 8.63 358.83 15.4 367.21 13.64"/>
</svg>